<svg xmlns="http://www.w3.org/2000/svg" width="27" height="24" viewBox="0 0 27 24">
    <path fill="#FFF" fill-rule="nonzero" d="M10.26 18.783c1.489 0 2.7 1.17 2.7 2.608 0 1.439-1.211 2.609-2.7 2.609s-2.7-1.17-2.7-2.609c0-1.438 1.211-2.608 2.7-2.608zm0 3.76c.657 0 1.192-.516 1.192-1.152 0-.635-.535-1.152-1.192-1.152-.657 0-1.192.517-1.192 1.152 0 .635.534 1.152 1.192 1.152zm9.72-3.76c1.489 0 2.7 1.17 2.7 2.608 0 1.439-1.211 2.609-2.7 2.609s-2.7-1.17-2.7-2.609c0-1.438 1.211-2.608 2.7-2.608zm0 3.76c.657 0 1.192-.516 1.192-1.152 0-.635-.534-1.152-1.192-1.152-.657 0-1.192.517-1.192 1.152 0 .635.534 1.152 1.192 1.152zm-.118-12.108c.363 0 .658.233.658.522 0 .288-.295.521-.658.521h-8.404c-.363 0-.658-.233-.658-.521 0-.289.295-.522.658-.522h8.404zm.934-3.13c.444 0 .804.233.804.521 0 .288-.36.522-.804.522H10.524c-.444 0-.804-.234-.804-.522 0-.288.36-.522.804-.522h10.272zm5.906-2.88c.252.286.351.66.27 1.022l-1.854 8.332c-.126.567-.672.98-1.298.98H7.425l.39 1.753h15.882c.366 0 .663.275.663.613 0 .34-.297.614-.663.614H7.815c-.626 0-1.172-.412-1.299-.98L3.31 2.346l-2.91-1.17C.063 1.043-.09.68.055.37.201.06.591-.084.927.051l2.91 1.17c.395.158.683.486.77.877l.417 1.874h20.65c.4 0 .775.165 1.028.452zM23.82 13.53L25.674 5.2H5.298l1.854 8.331H23.82z"/>
</svg>
