<svg xmlns="http://www.w3.org/2000/svg" width="115" height="46" viewBox="0 0 115 46">
    <g fill="none" fill-rule="evenodd">
        <path fill="#C62E26" d="M98 12l-7.353 33H83l7.305-33z"/>
        <ellipse cx="92.5" cy="18" fill="#C62E26" rx="18.5" ry="18"/>
        <circle cx="93" cy="16" r="4" fill="#FCFDFF"/>
        <path fill="#FCFDFF" d="M0 27.882L.852 24H19l-.852 3.882h-6.516L7.916 45h-4.81L6.82 27.882zM38 24l-.817 3.882H25.44l-.967 4.5h10.864l-.788 3.59H23.687l-1.12 5.146h11.924L33.642 45H17l4.508-21zM47.519 24l5.917 14.94h.061L56.607 24H61l-4.606 21h-4.789l-5.979-14.737h-.062L42.453 45H38l4.576-21zM69.521 24l5.912 14.94h.062L78.605 24H83l-4.591 21h-4.807l-5.98-14.737h-.062L64.447 45H60l4.578-21zM100.775 40.42c.204.476.538.889.966 1.193.455.307.97.522 1.512.632a8.893 8.893 0 0 0 1.903.192c.49-.001.977-.06 1.45-.177.465-.11.908-.288 1.315-.53.387-.232.717-.543.966-.912.26-.406.392-.878.378-1.357a1.694 1.694 0 0 0-.482-1.25 4.221 4.221 0 0 0-1.256-.84 11.084 11.084 0 0 0-1.752-.618 86.075 86.075 0 0 1-1.978-.559 17.27 17.27 0 0 1-1.995-.707 6.873 6.873 0 0 1-1.738-1.062 4.908 4.908 0 0 1-1.238-1.589 5.12 5.12 0 0 1-.469-2.297 5.662 5.662 0 0 1 .755-3.004 6.27 6.27 0 0 1 1.965-2.017 8.788 8.788 0 0 1 2.735-1.149 13.154 13.154 0 0 1 3.096-.369 12.81 12.81 0 0 1 3.128.37c.927.224 1.798.63 2.559 1.192a5.944 5.944 0 0 1 1.754 2.105c.457.973.679 2.036.648 3.106h-4.492a3.198 3.198 0 0 0-.258-1.487 2.543 2.543 0 0 0-.816-.987 3.375 3.375 0 0 0-1.253-.543 7.172 7.172 0 0 0-2.886-.03c-.43.08-.844.23-1.224.443a2.54 2.54 0 0 0-.877.808c-.23.373-.345.802-.33 1.237-.01.492.206.962.589 1.281.42.362.9.65 1.419.855.552.225 1.124.402 1.708.53l1.42.31c.792.199 1.57.45 2.327.75.67.264 1.288.637 1.827 1.105a4.62 4.62 0 0 1 1.194 1.648 5.99 5.99 0 0 1 .422 2.386 6.084 6.084 0 0 1-.8 3.21 6.63 6.63 0 0 1-2.054 2.15 8.71 8.71 0 0 1-2.826 1.192 13.618 13.618 0 0 1-3.112.369c-3.022 0-5.273-.599-6.754-1.796C96.741 43.007 96 41.122 96 38.55h4.503a4.063 4.063 0 0 0 .272 1.871z"/>
        <path fill="#C62E26" d="M10 8.733l-.401 1.77h-4.56l-1.404 6.013c-.088.344-.158.691-.21 1.042a6.205 6.205 0 0 0-.095.93c0 .567.144.987.435 1.264.29.277.826.414 1.607.414a4.896 4.896 0 0 0 1.145-.163c.304-.067.604-.152.897-.256h.117l-.41 1.883c-.465.114-.935.203-1.409.268a9.617 9.617 0 0 1-1.32.102c-1.082 0-1.918-.232-2.51-.697-.591-.465-.885-1.214-.882-2.246 0-.247.017-.494.052-.74.037-.232.084-.52.148-.831l1.642-6.974H1.34l.404-1.77h1.507L4.119 5h2.218l-.88 3.733H10z"/>
        <path fill="#C62E26" fill-rule="nonzero" d="M20.8 20.34c-.217.117-.514.285-.89.501a8.6 8.6 0 0 1-1.143.56c-.445.18-.907.323-1.38.426a8.012 8.012 0 0 1-1.755.17 3.888 3.888 0 0 1-2.614-.857c-.676-.576-1.046-1.39-1.015-2.234a4.224 4.224 0 0 1 .706-2.484 5.087 5.087 0 0 1 2.1-1.653 11.997 11.997 0 0 1 3.298-.912 37.254 37.254 0 0 1 4.398-.35c.05-.205.094-.384.128-.534.035-.157.052-.316.05-.475a1.498 1.498 0 0 0-.24-.864 1.613 1.613 0 0 0-.656-.53 3.326 3.326 0 0 0-.986-.272 9.752 9.752 0 0 0-1.243-.073c-.794.013-1.583.116-2.35.305-.728.16-1.444.361-2.144.603h-.121l.447-2.08c.462-.11 1.134-.236 2.021-.377A16.493 16.493 0 0 1 19.966 9c1.678 0 2.936.24 3.774.72.839.48 1.258 1.24 1.26 2.278 0 .213-.019.426-.053.637-.036.22-.08.442-.128.636l-2.101 8.383H20.46l.34-1.314zm1.31-5.19a34.75 34.75 0 0 0-3.311.258 10.74 10.74 0 0 0-2.391.559 3.404 3.404 0 0 0-1.49.99 2.387 2.387 0 0 0-.507 1.547c-.032.468.187.921.587 1.215.394.28 1.008.42 1.838.42a6.12 6.12 0 0 0 2.243-.442c.75-.293 1.465-.655 2.135-1.08l.897-3.468zM42 12.988c.005 1.2-.192 2.393-.583 3.528a9.412 9.412 0 0 1-1.557 2.869 7.756 7.756 0 0 1-2.287 1.935 5.759 5.759 0 0 1-2.783.68 6.617 6.617 0 0 1-1.907-.265 6.448 6.448 0 0 1-1.587-.71l-.286.623H29L33.116 4h2.15l-1.469 6.306a14.15 14.15 0 0 1 2.086-1.208 5.372 5.372 0 0 1 2.266-.46c1.247 0 2.2.382 2.86 1.147.66.764.99 1.832.99 3.203zm-3.538 5.092c.432-.669.757-1.4.963-2.166a9.603 9.603 0 0 0 .32-2.518c0-.906-.198-1.6-.594-2.082-.397-.482-1.03-.726-1.903-.732a4.728 4.728 0 0 0-1.969.467c-.66.3-1.296.653-1.9 1.054l-1.685 7.25c.454.244.931.445 1.424.6a5.568 5.568 0 0 0 1.656.227 3.99 3.99 0 0 0 2.131-.58 4.975 4.975 0 0 0 1.557-1.52z"/>
        <path fill="#C62E26" d="M53 4l-4.597 18H46l4.597-18z"/>
        <path fill="#C62E26" fill-rule="nonzero" d="M61.05 21c-1.887 0-3.367-.402-4.44-1.206-1.072-.804-1.608-1.985-1.608-3.541-.045-2.14.8-4.218 2.364-5.819C58.944 8.811 60.895 8 63.217 8c1.546 0 2.728.349 3.547 1.047.82.698 1.231 1.677 1.236 2.937a8.51 8.51 0 0 1-.105 1.05c-.068.48-.177 1.038-.326 1.674H57.525a4.96 4.96 0 0 0-.103.63c-.022.209-.031.401-.031.578 0 1.033.35 1.85 1.05 2.452.7.602 1.693.897 2.977.886a8.654 8.654 0 0 0 2.764-.478 11.42 11.42 0 0 0 2.387-1.074h.134l-.51 2.249c-.406.133-.771.254-1.096.365-.407.132-.823.243-1.244.332-.504.11-.95.197-1.34.254-.484.069-.973.101-1.463.098zm4.58-7.821c.042-.222.071-.394.086-.543a4.28 4.28 0 0 0 .024-.486c0-.791-.237-1.408-.712-1.85-.487-.443-1.238-.665-2.289-.665a5.104 5.104 0 0 0-3.076.976c-.897.655-1.535 1.557-1.816 2.57l7.783-.002z"/>
    </g>
</svg>
