<svg xmlns="http://www.w3.org/2000/svg" width="128" height="65" viewBox="0 0 128 65">
    <defs>
        <linearGradient id="a" x1="50%" x2="50%" y1="0%" y2="100%">
            <stop offset="0%" stop-color="#68B23B"/>
            <stop offset="13%" stop-color="#4AA242"/>
            <stop offset="34%" stop-color="#07904A"/>
            <stop offset="55%" stop-color="#00824F"/>
            <stop offset="77%" stop-color="#007C52"/>
            <stop offset="100%" stop-color="#007953"/>
        </linearGradient>
    </defs>
    <g fill="none" fill-rule="evenodd">
        <text fill="#FFF" font-family="Ubuntu-Light, Ubuntu Light" font-size="11" letter-spacing=".917" opacity=".4">
            <tspan x="59.022" y="14">designed by</tspan>
        </text>
        <path fill="url(#a)" fill-rule="nonzero" d="M26.203 65L0 48.652l.105-32.506L26.417 0l26.205 16.335-.108 32.514L26.204 65zM3.306 46.61l22.897 14.288 23.005-14.117.095-28.384L26.406 4.104 3.42 18.22 3.306 46.61z"/>
        <path fill="#FFF" fill-rule="nonzero" d="M56.889 47.143V22.857h9.17c3.047 0 5.409.875 7.085 2.624 2.688 2.937 3.287 7.558 1.456 11.244a8.721 8.721 0 0 1-2.98 3.334l4.469 7.084H70.43l-3.31-5.622c-.728.05-1.765.074-3.111.074h-2.484v5.548h-4.637zm4.629-10.044h4.734c1.39 0 2.494-.462 3.31-1.386a5.542 5.542 0 0 0 .015-6.972c-.81-.923-1.911-1.385-3.302-1.385h-4.75l-.007 9.743z"/>
        <path fill="#FFF" d="M79.644 47.143V22.857h4.978v24.286zM87.47 34.977c-.058-3.423 1.123-6.72 3.263-9.103 3.97-4.534 10.84-5 15.382-1.045l-2.712 3.655a6.565 6.565 0 0 0-9.14.864 8.535 8.535 0 0 0-1.923 5.626 8.706 8.706 0 0 0 1.89 5.647 5.848 5.848 0 0 0 4.737 2.35 6.487 6.487 0 0 0 4.855-1.99l2.845 3.687c-2.098 2.125-4.675 3.187-7.733 3.187a10.461 10.461 0 0 1-8.217-3.74c-2.14-2.395-3.315-5.705-3.248-9.138zM109.511 47.143V22.857h4.646v9.483h9.197v-9.483H128v24.286h-4.646V36.838h-9.197v10.305zM42.121 45.054c-3.768 3.738-9.368 3.738-13.134 0-1.784-1.85-2.676-4.27-2.676-7.26V22.857h4.59v14.71a5.762 5.762 0 0 0 1.33 3.934 4.218 4.218 0 0 0 3.325 1.522 4.174 4.174 0 0 0 3.293-1.522 5.81 5.81 0 0 0 1.33-3.934v-14.71H44.8v14.937c-.002 2.964-.895 5.384-2.679 7.26z"/>
    </g>
</svg>
