<svg xmlns="http://www.w3.org/2000/svg" width="40" height="40" viewBox="0 0 40 40">
    <path fill="#FFF" fill-rule="nonzero" d="M19.975 0C8.944 0 0 8.944 0 19.975S8.944 39.95 19.975 39.95 39.95 31.006 39.95 19.975C39.95 8.941 31.006 0 19.975 0zm12.272 24.447c-.135 1.663-1.398 3.785-3.163 4.092-5.656.44-12.357.385-18.215 0-1.828-.23-3.029-2.432-3.164-4.092-.284-3.49-.284-5.478 0-8.969.135-1.66 1.366-3.85 3.164-4.05 5.79-.487 12.53-.382 18.215 0 2.032.075 3.028 2.17 3.163 3.833.28 3.49.28 5.695 0 9.186zm-14.769.522l7.49-4.994-7.49-4.994v9.988z" opacity=".4"/>
</svg>
